<svg xmlns="http://www.w3.org/2000/svg" width="1600" height="900" viewBox="0 0 1600 900">
  <defs>
    <linearGradient id="applianceBg" x1="0%" y1="0%" x2="100%" y2="100%">
      <stop offset="0%" stop-color="#0f172a"/>
      <stop offset="70%" stop-color="#0ea5e9"/>
      <stop offset="100%" stop-color="#38bdf8"/>
    </linearGradient>
    <filter id="softGlow" x="-50%" y="-50%" width="200%" height="200%">
      <feGaussianBlur stdDeviation="45" result="blur"/>
      <feBlend in="SourceGraphic" in2="blur" mode="lighter"/>
    </filter>
  </defs>
  <rect width="1600" height="900" fill="url(#applianceBg)"/>
  <g opacity="0.25" filter="url(#softGlow)">
    <circle cx="1260" cy="300" r="210" fill="#bae6fd"/>
    <circle cx="360" cy="220" r="160" fill="#67e8f9"/>
    <circle cx="380" cy="690" r="240" fill="#0ea5e9"/>
    <circle cx="1220" cy="640" r="200" fill="#38bdf8"/>
  </g>
  <g transform="translate(240,240)" fill="none" stroke="#f8fafc" stroke-width="5" stroke-linejoin="round">
    <rect x="0" y="0" width="230" height="420" rx="28"/>
    <rect x="56" y="70" width="118" height="118" rx="14"/>
    <rect x="56" y="238" width="118" height="118" rx="14"/>
  </g>
  <g transform="translate(520,260)" fill="none" stroke="#e2e8f0" stroke-width="4" stroke-linejoin="round">
    <rect x="0" y="0" width="210" height="360" rx="26"/>
    <path d="M52 70h106v54H52z"/>
    <path d="M52 170h106v54H52z"/>
  </g>
  <path d="M920 300c56-60 162-76 248-36 98 46 141 147 95 236-150 40-294-4-343-90 24-38 25-80 0-110z" fill="rgba(226,232,240,0.35)"/>
  <rect x="1010" y="520" width="360" height="150" rx="32" fill="rgba(15,23,42,0.48)" stroke="rgba(226,232,240,0.28)" stroke-width="2"/>
  <text x="1055" y="585" fill="#f8fafc" font-size="34" font-family="Pretendard, 'Segoe UI', sans-serif" font-weight="600" opacity="0.92">
    PREMIUM APPLIANCES
  </text>
  <text x="1055" y="625" fill="#e2e8f0" font-size="20" font-family="Pretendard, 'Segoe UI', sans-serif" opacity="0.75">
    설치부터 케어까지 한번에 케어하는 하이엔드 가전
  </text>
</svg>
