<svg xmlns="http://www.w3.org/2000/svg" width="1600" height="900" viewBox="0 0 1600 900">
  <defs>
    <linearGradient id="bg" x1="0%" y1="0%" x2="100%" y2="100%">
      <stop offset="0%" stop-color="#0f172a"/>
      <stop offset="60%" stop-color="#2563eb"/>
      <stop offset="100%" stop-color="#38bdf8"/>
    </linearGradient>
    <linearGradient id="flare" x1="0%" y1="0%" x2="100%" y2="0%">
      <stop offset="0%" stop-color="rgba(255,255,255,0.8)"/>
      <stop offset="100%" stop-color="rgba(148,163,184,0.2)"/>
    </linearGradient>
    <filter id="glow" x="-50%" y="-50%" width="200%" height="200%">
      <feGaussianBlur stdDeviation="40" result="blur"/>
      <feBlend in="SourceGraphic" in2="blur" mode="lighter"/>
    </filter>
  </defs>
  <rect width="1600" height="900" fill="url(#bg)"/>
  <g opacity="0.3" filter="url(#glow)">
    <circle cx="1300" cy="220" r="180" fill="#60a5fa"/>
    <circle cx="380" cy="120" r="140" fill="#38bdf8"/>
    <circle cx="220" cy="620" r="210" fill="#1d4ed8"/>
    <circle cx="1160" cy="640" r="260" fill="#0ea5e9"/>
  </g>
  <g transform="translate(250,210)" fill="none" stroke="#f8fafc" stroke-width="4" stroke-linecap="round">
    <rect x="0" y="0" width="210" height="450" rx="48"/>
    <circle cx="105" cy="395" r="18"/>
    <rect x="48" y="66" width="114" height="38" rx="12"/>
  </g>
  <g transform="translate(520,250)" fill="none" stroke="#e0f2fe" stroke-width="3" stroke-linecap="round">
    <rect x="0" y="0" width="170" height="330" rx="40"/>
    <circle cx="85" cy="288" r="14"/>
  </g>
  <path d="M885 280c50-70 150-90 238-55 76 30 121 103 122 178 0 0-212 120-360 30 30-50 33-107 0-153z" fill="rgba(148,163,184,0.35)"/>
  <path d="M1180 350c48-40 125-44 188-7 69 40 93 120 55 180-100 30-200-10-243-76z" fill="rgba(241,245,249,0.28)"/>
  <rect x="1050" y="480" width="280" height="130" rx="28" fill="rgba(15,23,42,0.45)" stroke="rgba(226,232,240,0.35)" stroke-width="2"/>
  <text x="1090" y="535" fill="#f8fafc" font-size="30" font-family="Pretendard, 'Segoe UI', sans-serif" font-weight="600" opacity="0.9">
    MOBILE &amp; TABLET
  </text>
  <text x="1090" y="575" fill="#e2e8f0" font-size="20" font-family="Pretendard, 'Segoe UI', sans-serif" opacity="0.7">
    플래그십 스마트 디바이스를 가장 빠르게
  </text>
  <path d="M1020 180h360" stroke="url(#flare)" stroke-width="6" stroke-linecap="round" opacity="0.6"/>
</svg>
